<?xml version="1.0" standalone="no"?>
<!DOCTYPE svg PUBLIC "-//W3C//DTD SVG 20010904//EN"
 "http://www.w3.org/TR/2001/REC-SVG-20010904/DTD/svg10.dtd">
<svg version="1.0" xmlns="http://www.w3.org/2000/svg"
 width="75.000000pt" height="75.000000pt" viewBox="0 0 75.000000 75.000000"
 preserveAspectRatio="xMidYMid meet">
<metadata>
Created by potrace 1.16, written by Peter Selinger 2001-2019
</metadata>
<g transform="translate(0.000000,75.000000) scale(0.100000,-0.100000)"
fill="#000000" stroke="none">
<path d="M256 685 c-85 -35 -145 -89 -188 -172 -58 -113 -61 -229 -7 -334 10
-20 16 -39 13 -41 -8 -9 95 -98 139 -119 59 -29 77 -21 77 33 l0 43 -46 0
c-48 0 -46 -2 -112 85 -33 42 -2 41 35 -1 16 -17 36 -35 46 -41 25 -13 74 -1
80 20 3 9 8 25 12 34 6 15 2 18 -19 18 -42 0 -104 37 -122 73 -24 45 -24 144
0 179 10 15 15 32 11 38 -4 6 -4 27 -1 46 8 39 21 42 69 17 44 -22 216 -22
269 1 21 9 42 16 47 16 14 0 25 -45 18 -70 -3 -11 4 -37 15 -57 23 -44 20
-121 -6 -172 -18 -34 -81 -71 -122 -71 -21 0 -25 -3 -18 -17 4 -10 9 -47 11
-83 7 -124 13 -130 99 -81 71 41 148 129 174 199 32 84 26 225 -12 302 -31 63
-99 120 -188 157 -78 32 -193 32 -274 -2z"/>
</g>
</svg>
