<?xml version="1.0" standalone="no"?>
<!DOCTYPE svg PUBLIC "-//W3C//DTD SVG 20010904//EN"
 "http://www.w3.org/TR/2001/REC-SVG-20010904/DTD/svg10.dtd">
<svg version="1.0" xmlns="http://www.w3.org/2000/svg"
 width="75.000000pt" height="75.000000pt" viewBox="0 0 75.000000 75.000000"
 preserveAspectRatio="xMidYMid meet">
<metadata>
Created by potrace 1.16, written by Peter Selinger 2001-2019
</metadata>
<g transform="translate(0.000000,75.000000) scale(0.100000,-0.100000)"
fill="#000000" stroke="none">
<path d="M93 735 c-18 -8 -33 -21 -33 -30 0 -10 -5 -13 -12 -9 -7 4 8 -14 33
-39 42 -42 45 -47 33 -69 -22 -38 -16 -43 9 -7 41 62 82 74 252 74 130 0 155
-3 190 -20 80 -40 102 -116 93 -318 -6 -137 -31 -182 -115 -213 -35 -13 -36
-14 -8 -12 23 2 37 -5 68 -39 22 -24 45 -43 51 -43 15 1 56 36 56 49 0 6 4 11
8 11 26 0 32 61 32 309 0 252 -1 259 -23 292 -12 18 -38 44 -56 56 -33 22 -40
23 -290 23 -198 -1 -263 -4 -288 -15z"/>
<path d="M231 590 c-46 -11 -62 -30 -66 -81 -4 -41 -1 -36 11 20 l5 24 18 -29
c10 -16 25 -35 34 -43 15 -12 15 -16 1 -43 -8 -16 -13 -39 -11 -51 4 -19 4
-19 6 4 3 61 80 129 146 129 74 0 145 -70 145 -142 0 -68 -37 -118 -107 -144
l-38 -15 40 5 c35 4 43 1 63 -24 l23 -29 -28 -7 c-51 -11 -49 -14 6 -8 107 11
121 37 120 216 -1 211 -17 229 -214 227 -66 -1 -135 -5 -154 -9z"/>
<path d="M315 435 c-17 -16 -25 -34 -24 -57 1 -31 2 -31 8 -7 l6 26 43 -48
c43 -48 43 -49 18 -49 -14 0 -35 9 -46 20 -11 11 -20 16 -20 11 0 -19 45 -41
81 -41 29 0 43 6 58 26 47 60 10 144 -64 144 -25 0 -44 -8 -60 -25z"/>
</g>
</svg>
